<?xml version="1.0" encoding="utf-8"?>
<!-- Generator: Adobe Illustrator 16.0.0, SVG Export Plug-In . SVG Version: 6.00 Build 0)  -->
<svg version="1.2" baseProfile="tiny" id="Слой_1"
	 xmlns="http://www.w3.org/2000/svg" xmlns:xlink="http://www.w3.org/1999/xlink" x="0px" y="0px" width="32px" height="32px"
	 viewBox="0 0 32 32" xml:space="preserve">
<g>
	<path fill-rule="evenodd" fill="#96B60B" d="M16.981,31.996c-0.667,0-1.333,0-2,0c-0.322-0.039-0.644-0.079-0.966-0.116
		c-1.486-0.171-2.917-0.557-4.29-1.146c-2.763-1.188-5.018-3.016-6.768-5.459c-1.618-2.258-2.563-4.78-2.867-7.539
		c-0.133-1.21-0.12-2.422,0.024-3.634c0.172-1.452,0.531-2.854,1.09-4.204c0.893-2.154,2.201-4.021,3.906-5.61
		c1.25-1.166,2.65-2.111,4.205-2.825c1.679-0.77,3.439-1.238,5.281-1.392c0.207-0.017,0.413-0.044,0.619-0.066
		c0.536,0,1.071,0,1.607,0c0.049,0.012,0.098,0.03,0.147,0.036c0.396,0.041,0.792,0.07,1.187,0.119
		c1.637,0.202,3.197,0.671,4.686,1.377c2.007,0.952,3.736,2.274,5.202,3.943c1.322,1.506,2.329,3.199,3.008,5.083
		c0.758,2.107,1.057,4.279,0.908,6.515c-0.082,1.243-0.298,2.458-0.665,3.646c-0.814,2.635-2.224,4.905-4.21,6.818
		c-1.498,1.442-3.208,2.556-5.14,3.328c-1.282,0.513-2.607,0.855-3.979,1.015C17.64,31.921,17.311,31.958,16.981,31.996z
		 M15.997,30.738c8.106-0.027,14.704-6.541,14.729-14.698c0.025-8.119-6.562-14.736-14.697-14.756
		C7.993,1.264,1.282,7.776,1.28,16.013C1.277,24.051,7.766,30.694,15.997,30.738z"/>
	<path fill-rule="evenodd" fill="#96B60B" d="M29.522,16.021c-0.016,7.455-6.096,13.524-13.55,13.5
		C8.514,29.497,2.48,23.465,2.489,15.987C2.498,8.527,8.577,2.48,16.002,2.49C23.46,2.5,29.538,8.583,29.522,16.021z M16.003,28.242
		c6.764-0.009,12.245-5.493,12.234-12.241C28.226,9.217,22.742,3.762,15.94,3.768C9.247,3.773,3.75,9.303,3.766,16.014
		C3.783,22.777,9.261,28.251,16.003,28.242z"/>
	<path fill-rule="evenodd" fill="#96B60B" d="M16.637,12.014c0,1.176,0.002,2.351-0.003,3.527c0,0.143,0.041,0.243,0.142,0.343
		c1.106,1.101,2.209,2.207,3.313,3.309c0.202,0.201,0.328,0.423,0.23,0.718c-0.143,0.434-0.636,0.586-0.996,0.308
		c-0.067-0.052-0.127-0.112-0.188-0.173c-1.159-1.158-2.316-2.319-3.479-3.475c-0.198-0.196-0.294-0.41-0.293-0.693
		c0.006-2.443,0.003-4.885,0.004-7.328c0-0.443,0.173-0.687,0.526-0.75c0.375-0.067,0.721,0.189,0.733,0.571
		c0.016,0.535,0.009,1.071,0.01,1.606C16.638,10.655,16.637,11.334,16.637,12.014z"/>
	<path fill-rule="evenodd" fill="#96B60B" d="M15.371,5.77c0-0.124-0.005-0.248,0.001-0.372c0.017-0.35,0.291-0.61,0.636-0.61
		c0.332,0,0.607,0.258,0.622,0.6c0.012,0.26,0.013,0.521,0,0.782c-0.017,0.342-0.292,0.59-0.632,0.587
		c-0.342-0.003-0.607-0.254-0.624-0.597c-0.006-0.13-0.001-0.261-0.001-0.391C15.372,5.77,15.372,5.77,15.371,5.77z"/>
	<path fill-rule="evenodd" fill="#96B60B" d="M5.771,15.374c0.13,0,0.261-0.005,0.391,0.001c0.314,0.014,0.575,0.28,0.588,0.593
		c0.015,0.342-0.205,0.633-0.532,0.658c-0.292,0.022-0.587,0.022-0.878,0.002c-0.338-0.023-0.565-0.312-0.552-0.66
		c0.012-0.32,0.282-0.583,0.611-0.594C5.523,15.37,5.647,15.374,5.771,15.374z"/>
	<path fill-rule="evenodd" fill="#96B60B" d="M16.631,26.221c0,0.144,0.009,0.288-0.002,0.431c-0.026,0.34-0.298,0.574-0.647,0.569
		c-0.328-0.005-0.594-0.258-0.607-0.592c-0.01-0.254-0.011-0.509-0.002-0.763c0.012-0.352,0.289-0.614,0.631-0.613
		c0.335,0.002,0.604,0.256,0.626,0.597C16.637,25.973,16.631,26.098,16.631,26.221z"/>
	<path fill-rule="evenodd" fill="#96B60B" d="M26.255,15.374c0.124,0,0.248-0.004,0.371,0.001c0.313,0.014,0.575,0.279,0.59,0.594
		c0.015,0.339-0.207,0.632-0.533,0.658c-0.291,0.022-0.587,0.023-0.878,0.003c-0.339-0.023-0.564-0.312-0.551-0.661
		c0.012-0.315,0.271-0.577,0.59-0.593C25.98,15.368,26.118,15.374,26.255,15.374z"/>
</g>
</svg>
