<?xml version="1.0" encoding="utf-8"?>
<!-- Generator: Adobe Illustrator 16.0.0, SVG Export Plug-In . SVG Version: 6.00 Build 0)  -->
<svg version="1.2" baseProfile="tiny" id="Слой_1"
	 xmlns="http://www.w3.org/2000/svg" xmlns:xlink="http://www.w3.org/1999/xlink" x="0px" y="0px" width="32px" height="32px"
	 viewBox="0 0 32 32" xml:space="preserve">
<g>
	<path fill-rule="evenodd" fill="#96B60B" d="M4.243,31.996c-0.372-0.131-0.498-0.405-0.495-0.785
		c0.009-1.228,0.002-2.454,0.004-3.682c0.001-0.475,0.243-0.713,0.718-0.72c0.102-0.002,0.203-0.001,0.304-0.001
		c0.066,0,0.133,0,0.208,0c0.052-0.317,0-0.579-0.232-0.81c-1.255-1.245-2.5-2.5-3.753-3.746c-0.462-0.459-0.793-0.989-0.917-1.632
		c-0.048-0.253-0.075-0.513-0.076-0.77C-0.001,17.149,0,14.447,0.002,11.745c0.001-1.174,0.623-2.092,1.662-2.472
		c1.545-0.565,3.266,0.545,3.319,2.188C5.03,12.918,5,14.377,5.005,15.835c0,0.072,0,0.144,0,0.214
		c0.254-0.014,0.493-0.042,0.731-0.037c0.668,0.015,1.228,0.289,1.695,0.755c1.375,1.372,2.747,2.746,4.12,4.119
		c0.645,0.646,0.955,1.424,0.951,2.335c-0.005,1.12-0.001,2.24-0.001,3.36c0,0.067,0,0.134,0,0.226c0.189,0,0.361-0.001,0.533,0
		c0.477,0.003,0.716,0.241,0.716,0.719c0.002,1.228-0.006,2.454,0.005,3.682c0.003,0.381-0.12,0.654-0.491,0.787
		C10.257,31.996,7.25,31.996,4.243,31.996z M11.248,26.8c0-0.078,0-0.139,0-0.199c0-1.126-0.006-2.252,0.002-3.378
		c0.004-0.585-0.197-1.067-0.612-1.479c-1.064-1.054-2.12-2.116-3.178-3.175c-0.314-0.314-0.628-0.631-0.944-0.943
		c-0.315-0.312-0.697-0.429-1.128-0.345c-0.468,0.091-0.79,0.375-0.938,0.826c-0.161,0.486-0.044,0.921,0.313,1.286
		c0.283,0.29,0.573,0.574,0.859,0.86c0.724,0.725,1.448,1.449,2.173,2.173c0.166,0.166,0.287,0.352,0.251,0.598
		c-0.037,0.256-0.182,0.436-0.427,0.518c-0.263,0.088-0.485,0-0.675-0.189c-1.027-1.027-2.062-2.047-3.079-3.083
		c-0.892-0.909-0.987-2.248-0.245-3.248c0.098-0.132,0.134-0.256,0.134-0.415c-0.004-1.616-0.002-3.231-0.003-4.847
		c0-0.101-0.003-0.203-0.014-0.303c-0.089-0.818-1.036-1.329-1.768-0.954c-0.511,0.262-0.718,0.692-0.717,1.254
		c0.004,2.686,0.007,5.371-0.001,8.056c-0.002,0.636,0.213,1.152,0.664,1.598c1.256,1.243,2.501,2.498,3.752,3.747
		c0.278,0.277,0.474,0.6,0.541,0.987c0.037,0.214,0.045,0.432,0.066,0.656C7.927,26.8,9.574,26.8,11.248,26.8z M12.488,28.078
		c-2.505,0-4.989,0-7.471,0c0,0.896,0,1.775,0,2.659c2.497,0,4.981,0,7.471,0C12.488,29.846,12.488,28.965,12.488,28.078z"/>
	<path fill-rule="evenodd" fill="#96B60B" d="M18.736,31.996c-0.369-0.135-0.491-0.407-0.487-0.788
		c0.012-1.216,0.004-2.433,0.004-3.648c0-0.518,0.232-0.747,0.753-0.752c0.16-0.002,0.373,0.04,0.465-0.045
		c0.081-0.073,0.031-0.295,0.032-0.452c0.004-1.108-0.005-2.218,0.012-3.327c0.012-0.781,0.315-1.459,0.861-2.012
		c1.405-1.421,2.818-2.834,4.238-4.241c0.617-0.611,1.371-0.827,2.228-0.681c0.039,0.007,0.078,0.013,0.117,0.019
		c0.004,0,0.01-0.004,0.041-0.02c0-0.051,0-0.116,0-0.181c0-1.385,0.001-2.771-0.001-4.155c-0.001-0.881,0.339-1.592,1.051-2.118
		c1.292-0.956,3.221-0.375,3.778,1.131c0.119,0.322,0.17,0.65,0.17,0.989c0.001,2.72-0.001,5.439,0.002,8.159
		c0.001,0.938-0.334,1.727-0.999,2.387c-1.234,1.227-2.457,2.464-3.695,3.686c-0.244,0.241-0.347,0.501-0.285,0.863
		c0.174,0,0.356,0.001,0.539,0c0.246,0,0.464,0.073,0.586,0.296c0.065,0.117,0.102,0.266,0.103,0.4
		c0.008,1.267,0.003,2.534,0.006,3.801c0.001,0.339-0.173,0.552-0.463,0.69C24.772,31.996,21.755,31.996,18.736,31.996z
		 M25.726,26.798c0.01-0.021,0.018-0.03,0.019-0.041c0.003-0.039,0.007-0.078,0.005-0.118c-0.018-0.615,0.211-1.118,0.649-1.552
		c1.254-1.238,2.493-2.491,3.742-3.735c0.398-0.396,0.609-0.868,0.609-1.433c0-2.742,0-5.484,0-8.226
		c0-0.281-0.063-0.546-0.229-0.778c-0.336-0.467-0.886-0.65-1.432-0.465c-0.462,0.156-0.841,0.609-0.839,1.221
		c0.006,1.684,0.001,3.367,0.005,5.051c0,0.076,0.033,0.165,0.08,0.226c0.329,0.434,0.518,0.918,0.534,1.463
		c0.023,0.75-0.25,1.381-0.779,1.908c-1.001,0.998-1.999,1.998-2.998,2.997c-0.036,0.036-0.073,0.071-0.112,0.103
		c-0.293,0.231-0.709,0.16-0.91-0.155c-0.177-0.276-0.125-0.569,0.153-0.848c1.003-1.004,2.009-2.004,3.009-3.011
		c0.516-0.52,0.52-1.277,0.023-1.785c-0.472-0.482-1.257-0.498-1.759-0.001c-1.424,1.41-2.839,2.83-4.25,4.253
		c-0.316,0.318-0.483,0.72-0.485,1.173c-0.007,1.222-0.005,2.443-0.006,3.665c0,0.026,0.007,0.054,0.011,0.089
		C22.427,26.798,24.078,26.798,25.726,26.798z M19.519,28.072c0,0.896,0,1.779,0,2.664c2.497,0,4.981,0,7.471,0
		c0-0.893,0-1.773,0-2.664C24.493,28.072,22.009,28.072,19.519,28.072z"/>
	<path fill-rule="evenodd" fill="#96B60B" d="M25.372,9.375c0.003,5.168-4.199,9.369-9.378,9.376
		c-5.15,0.007-9.362-4.214-9.363-9.374c0-5.12,4.133-9.368,9.363-9.373C21.221-0.001,25.37,4.239,25.372,9.375z M24.121,9.392
		c0.016-4.387-3.504-8.07-8.004-8.136c-4.559-0.067-8.206,3.624-8.239,8.078c-0.033,4.441,3.566,8.124,8.067,8.163
		C20.445,17.537,24.113,13.89,24.121,9.392z"/>
	<path fill-rule="evenodd" fill="#96B60B" d="M22.872,9.549c-0.015,1.445-0.506,2.879-1.512,4.119
		c-1.098,1.353-2.505,2.21-4.234,2.482c-2.195,0.344-4.132-0.234-5.778-1.733c-1.228-1.117-1.947-2.515-2.162-4.156
		C9,8.829,9.249,7.462,9.917,6.177c0.176-0.339,0.536-0.469,0.852-0.309c0.319,0.162,0.439,0.521,0.265,0.864
		c-0.334,0.659-0.554,1.349-0.625,2.085c-0.114,1.187,0.118,2.303,0.711,3.338c0.618,1.079,1.501,1.872,2.637,2.372
		c0.858,0.378,1.758,0.532,2.698,0.451c1.327-0.114,2.472-0.633,3.431-1.549c0.955-0.914,1.528-2.033,1.688-3.348
		c0.187-1.526-0.179-2.917-1.12-4.134c-0.926-1.195-2.148-1.905-3.648-2.131c-0.675-0.102-1.344-0.071-2.012,0.063
		c-0.272,0.055-0.52,0-0.689-0.241c-0.148-0.212-0.158-0.44-0.035-0.668c0.098-0.182,0.26-0.272,0.457-0.313
		c0.609-0.124,1.224-0.184,1.845-0.144c0.894,0.057,1.752,0.263,2.565,0.651c1.357,0.649,2.397,1.632,3.116,2.953
		C22.608,7.139,22.872,8.236,22.872,9.549z"/>
	<path fill-rule="evenodd" fill="#96B60B" d="M15.365,12.767c0.085-0.264-0.054-0.392-0.312-0.527
		c-0.292-0.153-0.546-0.392-0.784-0.626c-0.263-0.259-0.237-0.653,0.018-0.887c0.268-0.245,0.64-0.226,0.901,0.054
		c0.182,0.195,0.373,0.373,0.641,0.444c0.255,0.068,0.471,0,0.64-0.192c0.172-0.195,0.198-0.428,0.096-0.663
		c-0.104-0.239-0.303-0.359-0.56-0.366c-0.564-0.015-1.035-0.224-1.413-0.646c-0.827-0.922-0.5-2.437,0.638-2.931
		c0.113-0.049,0.147-0.11,0.145-0.227c-0.004-0.219-0.005-0.439,0.015-0.657c0.027-0.305,0.288-0.533,0.592-0.541
		c0.311-0.008,0.592,0.214,0.626,0.522c0.024,0.223,0.019,0.449,0.015,0.674c-0.001,0.109,0.035,0.159,0.134,0.216
		c0.266,0.153,0.531,0.314,0.768,0.508c0.265,0.218,0.273,0.613,0.058,0.863c-0.229,0.263-0.595,0.286-0.88,0.066
		c-0.141-0.109-0.289-0.216-0.449-0.292c-0.254-0.12-0.499-0.066-0.697,0.131c-0.189,0.189-0.227,0.426-0.13,0.671
		c0.104,0.263,0.318,0.378,0.596,0.391c0.777,0.035,1.345,0.402,1.68,1.103c0.435,0.909,0.007,2.052-0.914,2.459
		c-0.128,0.057-0.174,0.128-0.168,0.266c0.009,0.208,0.007,0.417-0.011,0.624c-0.028,0.312-0.296,0.544-0.605,0.546
		c-0.311,0.002-0.577-0.224-0.616-0.535C15.373,13.078,15.375,12.936,15.365,12.767z"/>
	<path fill-rule="evenodd" fill="#96B60B" d="M12.249,5.001C11.902,5,11.625,4.714,11.631,4.362
		c0.005-0.338,0.293-0.615,0.632-0.609c0.332,0.006,0.609,0.286,0.61,0.615C12.875,4.72,12.596,5.003,12.249,5.001z"/>
</g>
</svg>
