<?xml version="1.0" encoding="utf-8"?>
<!-- Generator: Adobe Illustrator 16.0.0, SVG Export Plug-In . SVG Version: 6.00 Build 0)  -->
<svg version="1.2" baseProfile="tiny" id="Слой_1"
	 xmlns="http://www.w3.org/2000/svg" xmlns:xlink="http://www.w3.org/1999/xlink" x="0px" y="0px" width="70px" height="57px"
	 viewBox="0 0 100 87" xml:space="preserve">
<g>
	<path fill-rule="evenodd" fill="#42A824" d="M100,85.988C91.358,78.725,2.077,1.212,1.012,0c14.665,0,29.33,0,43.995,0
		C45.271,0.404,81.933,32.399,100,47.994C100,60.66,100,73.324,100,85.988z"/>
	<g>
		<path fill="#FFFFFF" d="M31.061,9.683l-2.259-1.965l-1.646,1.007l-1.304-1.134l7.814-4.51l1.321,1.15l-3.393,8.356l-1.304-1.135
			L31.061,9.683z M30,6.982l1.623,1.411l1.404-3.22L33,5.15L30,6.982z"/>
		<path fill="#FFFFFF" d="M32.156,13.075l4.161-4.784l1.999,1.738c0.636,0.554,1.035,1.097,1.195,1.63
			c0.161,0.532,0.047,1.02-0.337,1.462c-0.195,0.224-0.442,0.358-0.742,0.402c-0.301,0.044-0.627-0.007-0.981-0.154
			c0.301,0.386,0.46,0.758,0.476,1.117c0.017,0.359-0.089,0.669-0.317,0.932c-0.392,0.451-0.857,0.645-1.394,0.581
			c-0.538-0.064-1.122-0.37-1.753-0.918L32.156,13.075z M35.182,12.204l-0.881,1.013l1.017,0.885
			c0.228,0.197,0.432,0.301,0.614,0.313c0.182,0.011,0.345-0.066,0.488-0.231s0.201-0.337,0.173-0.517
			c-0.027-0.179-0.159-0.372-0.395-0.577L35.182,12.204z M35.912,11.364l0.743,0.646c0.238,0.208,0.448,0.323,0.627,0.346
			s0.335-0.042,0.467-0.194c0.149-0.172,0.199-0.351,0.147-0.537c-0.05-0.185-0.2-0.385-0.447-0.601l-0.708-0.615L35.912,11.364z"/>
		<path fill="#FFFFFF" d="M44.484,17.143l-1.529-1.33l-3.295,3.789l-1.296-1.127l3.295-3.789l-1.507-1.312l0.865-0.995l4.332,3.769
			L44.484,17.143z"/>
		<path fill="#FFFFFF" d="M43.678,18.818c0.621-0.713,1.328-1.124,2.122-1.233c0.794-0.109,1.543,0.142,2.248,0.755
			c0.708,0.615,1.064,1.324,1.071,2.127c0.005,0.802-0.303,1.562-0.926,2.278l-0.081,0.093c-0.625,0.719-1.334,1.132-2.127,1.236
			c-0.793,0.105-1.542-0.148-2.247-0.761c-0.707-0.615-1.063-1.323-1.069-2.123c-0.006-0.799,0.304-1.559,0.929-2.278L43.678,18.818
			z M44.887,20.028c-0.379,0.436-0.607,0.852-0.683,1.249c-0.076,0.396,0.057,0.744,0.398,1.041c0.334,0.29,0.692,0.37,1.078,0.239
			c0.385-0.13,0.765-0.411,1.142-0.844l0.081-0.093c0.369-0.424,0.591-0.837,0.668-1.242c0.077-0.403-0.053-0.751-0.389-1.044
			c-0.333-0.29-0.693-0.367-1.083-0.232c-0.389,0.134-0.766,0.412-1.132,0.833L44.887,20.028z"/>
		<path fill="#FFFFFF" d="M48.789,23.264c0.621-0.713,1.328-1.125,2.123-1.234c0.794-0.109,1.542,0.142,2.247,0.755
			c0.707,0.615,1.063,1.324,1.07,2.127c0.006,0.802-0.303,1.562-0.926,2.278l-0.081,0.093c-0.626,0.719-1.335,1.131-2.128,1.236
			c-0.792,0.105-1.541-0.148-2.245-0.761c-0.708-0.615-1.064-1.323-1.07-2.123s0.304-1.559,0.929-2.278L48.789,23.264z
			 M49.997,24.474c-0.379,0.436-0.607,0.852-0.683,1.249c-0.076,0.396,0.058,0.744,0.399,1.041c0.333,0.29,0.691,0.37,1.077,0.239
			c0.385-0.13,0.766-0.411,1.143-0.844l0.08-0.093c0.369-0.424,0.592-0.837,0.668-1.241c0.077-0.404-0.053-0.752-0.389-1.044
			c-0.332-0.29-0.693-0.367-1.084-0.232c-0.388,0.134-0.765,0.412-1.131,0.833L49.997,24.474z"/>
		<path fill="#FFFFFF" d="M52.919,29.372c0.559-0.046,1.018-0.173,1.376-0.381c0.359-0.208,0.785-0.58,1.279-1.118l1.425-1.593
			l3.527,3.069l-3.296,3.789l0.689,0.6l-2.199,2.35l-1.198-1.042l1.246-1.432l-2.825-2.458l-1.246,1.432l-1.202-1.046l2.009-2.532
			L52.919,29.372z M56.859,28.994c-0.433,0.456-0.854,0.82-1.264,1.091c-0.409,0.271-0.812,0.463-1.204,0.576l1.557,1.354
			l2.396-2.754l-0.969-0.842L56.859,28.994z"/>
		<path fill="#FFFFFF" d="M59.625,32.689c0.62-0.713,1.327-1.125,2.121-1.234c0.795-0.109,1.543,0.143,2.247,0.755
			c0.708,0.615,1.064,1.324,1.07,2.127c0.007,0.802-0.302,1.562-0.925,2.278l-0.081,0.093c-0.626,0.719-1.335,1.131-2.127,1.236
			c-0.793,0.105-1.542-0.149-2.247-0.762c-0.707-0.615-1.063-1.323-1.069-2.123c-0.007-0.799,0.304-1.559,0.93-2.278L59.625,32.689z
			 M60.832,33.899c-0.379,0.436-0.605,0.851-0.682,1.248c-0.076,0.396,0.057,0.744,0.398,1.041c0.333,0.29,0.692,0.37,1.077,0.239
			c0.386-0.13,0.767-0.412,1.143-0.845l0.081-0.092c0.368-0.424,0.591-0.837,0.667-1.241c0.077-0.403-0.053-0.752-0.389-1.044
			c-0.333-0.29-0.694-0.367-1.083-0.232c-0.388,0.135-0.767,0.413-1.133,0.833L60.832,33.899z"/>
		<path fill="#FFFFFF" d="M68.986,37.176c0.672,0.584,1.019,1.249,1.038,1.994s-0.256,1.446-0.827,2.103l-0.081,0.093
			c-0.59,0.678-1.269,1.055-2.037,1.132s-1.505-0.191-2.21-0.803c-0.707-0.616-1.076-1.309-1.105-2.081
			c-0.03-0.771,0.249-1.497,0.839-2.174l0.558-0.641c0.915-1.047,1.824-1.678,2.726-1.893s1.737-0.102,2.508,0.341
			c0.326,0.201,0.593,0.323,0.797,0.364c0.206,0.041,0.386-0.027,0.539-0.204l0.999,0.869l-0.011,0.038
			c-0.485,0.582-0.945,0.847-1.382,0.794c-0.435-0.053-1.028-0.315-1.777-0.786c-0.379-0.231-0.755-0.33-1.128-0.297
			c-0.372,0.033-0.744,0.207-1.116,0.52l-0.002,0.038c0.288-0.004,0.58,0.043,0.876,0.14C68.485,36.819,68.751,36.97,68.986,37.176z
			 M68.006,38.07c-0.333-0.29-0.676-0.387-1.028-0.291c-0.354,0.096-0.687,0.325-1.001,0.687l-0.081,0.093
			c-0.341,0.392-0.537,0.772-0.59,1.142s0.09,0.703,0.429,0.998c0.333,0.29,0.681,0.383,1.042,0.281
			c0.36-0.102,0.71-0.349,1.051-0.741l0.081-0.092c0.314-0.362,0.493-0.726,0.537-1.091C68.488,38.691,68.342,38.362,68.006,38.07z"
			/>
		<path fill="#FFFFFF" d="M74.166,45.649c-0.615,0.707-1.274,1.133-1.976,1.278c-0.701,0.146-1.346-0.036-1.932-0.546
			c-0.251-0.218-0.433-0.458-0.547-0.72c-0.113-0.263-0.162-0.543-0.144-0.844l-1.995,2.295l-1.287-1.119l5.761-6.623l1.163,1.011
			l-0.417,0.631c0.323-0.086,0.634-0.1,0.932-0.04c0.297,0.06,0.578,0.205,0.844,0.435c0.592,0.516,0.851,1.147,0.775,1.894
			c-0.075,0.748-0.44,1.499-1.097,2.254L74.166,45.649z M72.962,44.427c0.393-0.452,0.636-0.883,0.729-1.295
			c0.093-0.411-0.015-0.751-0.324-1.02c-0.195-0.169-0.395-0.273-0.602-0.313c-0.206-0.039-0.413-0.02-0.621,0.059l-1.825,2.099
			c-0.039,0.205-0.021,0.402,0.055,0.593c0.076,0.189,0.213,0.371,0.414,0.546c0.313,0.271,0.647,0.349,1.007,0.23
			s0.721-0.387,1.086-0.806L72.962,44.427z"/>
		<path fill="#FFFFFF" d="M75.033,50.535c-0.689-0.601-1.049-1.301-1.076-2.102c-0.028-0.801,0.254-1.542,0.846-2.223l0.154-0.177
			c0.617-0.71,1.321-1.126,2.112-1.246c0.79-0.12,1.513,0.107,2.167,0.683c0.646,0.562,0.978,1.191,0.996,1.891
			s-0.262,1.381-0.838,2.044l-0.611,0.703l-2.855-2.484l-0.032,0.019c-0.25,0.334-0.369,0.685-0.358,1.05s0.177,0.688,0.498,0.967
			c0.286,0.249,0.548,0.427,0.786,0.534s0.521,0.197,0.853,0.27l-0.344,1.101c-0.332-0.011-0.702-0.101-1.108-0.271
			S75.419,50.871,75.033,50.535z M78.371,46.465c-0.238-0.207-0.506-0.28-0.804-0.218s-0.593,0.228-0.884,0.497l-0.005,0.034
			l1.582,1.376l0.1-0.114c0.238-0.274,0.365-0.549,0.379-0.824C78.754,46.94,78.631,46.69,78.371,46.465z"/>
		<path fill="#FFFFFF" d="M81.922,56.364l-1.29-1.123l1.611-1.852l-1.574-1.369l-1.611,1.852l-1.291-1.123l4.161-4.783l1.291,1.123
			l-1.685,1.937l1.574,1.369l1.685-1.937l1.29,1.123L81.922,56.364z"/>
		<path fill="#FFFFFF" d="M89.916,54.915l1.287,1.119l-4.161,4.783l-1.287-1.119l2.538-2.918l-0.022-0.027l-4.103,1.564
			l-1.291-1.123l4.161-4.783l1.291,1.123l-2.53,2.909l0.022,0.027L89.916,54.915z"/>
		<path fill="#FFFFFF" d="M90.046,63.595c-0.689-0.601-1.048-1.301-1.076-2.102c-0.027-0.801,0.255-1.542,0.847-2.223l0.154-0.177
			c0.617-0.711,1.321-1.126,2.111-1.246c0.791-0.119,1.514,0.107,2.168,0.683c0.646,0.562,0.978,1.191,0.996,1.891
			c0.018,0.699-0.262,1.38-0.838,2.043l-0.611,0.703l-2.856-2.483l-0.032,0.019c-0.25,0.334-0.369,0.685-0.357,1.05
			c0.011,0.365,0.177,0.688,0.498,0.967c0.286,0.249,0.547,0.427,0.786,0.534c0.238,0.107,0.521,0.197,0.852,0.27l-0.343,1.1
			c-0.332-0.01-0.702-0.1-1.108-0.27S90.433,63.93,90.046,63.595z M93.385,59.524c-0.239-0.208-0.507-0.28-0.805-0.218
			s-0.592,0.229-0.883,0.497l-0.006,0.033l1.583,1.377l0.1-0.114c0.238-0.274,0.364-0.549,0.379-0.824S93.644,59.75,93.385,59.524z"
			/>
	</g>
</g>
</svg>
