<?xml version="1.0" encoding="utf-8"?>
<!-- Generator: Adobe Illustrator 16.0.0, SVG Export Plug-In . SVG Version: 6.00 Build 0)  -->
<svg version="1.2" baseProfile="tiny" id="Слой_1"
	 xmlns="http://www.w3.org/2000/svg" xmlns:xlink="http://www.w3.org/1999/xlink" x="0px" y="0px" width="70px" height="57px"
	 viewBox="0 0 100 87" xml:space="preserve">
<path fill-rule="evenodd" fill="#3DB39A" d="M100,85.988C91.358,78.725,2.077,1.212,1.012,0c14.665,0,29.33,0,43.995,0
	C45.271,0.404,81.933,32.399,100,47.994C100,60.66,100,73.324,100,85.988z"/>
<g>
	<path fill="#FFFFFF" d="M30.066,14.257l-1.653-1.438l7.17-8.243l1.653,1.438L30.066,14.257z"/>
	<path fill="#FFFFFF" d="M37.288,15.467l-3.193-2.777l1.108-1.274l3.193,2.777L37.288,15.467z"/>
	<path fill="#FFFFFF" d="M45.099,16.572l1.647,1.433l-5.328,6.126l-1.647-1.433l3.25-3.737l-0.029-0.035l-5.253,2.004l-1.653-1.438
		l5.328-6.126l1.653,1.438l-3.24,3.726l0.028,0.035L45.099,16.572z M48.319,14.688L48.3,14.732
		c-0.398,0.496-0.906,0.742-1.522,0.739c-0.618-0.003-1.224-0.264-1.82-0.783c-0.601-0.522-0.946-1.089-1.036-1.702
		c-0.09-0.613,0.084-1.149,0.523-1.608l0.042-0.024l1.206,1.049c-0.174,0.2-0.259,0.415-0.257,0.643
		c0.004,0.228,0.128,0.449,0.374,0.663c0.238,0.207,0.47,0.296,0.697,0.268c0.227-0.028,0.427-0.142,0.602-0.342L48.319,14.688z"/>
	<path fill="#FFFFFF" d="M51.115,26.142c0.279,0.243,0.535,0.363,0.771,0.361c0.233-0.002,0.444-0.111,0.632-0.326
		c0.17-0.196,0.251-0.417,0.242-0.664c-0.009-0.246-0.155-0.493-0.442-0.743c-0.268-0.233-0.536-0.36-0.806-0.383
		c-0.27-0.022-0.492,0.069-0.67,0.273l-1.603-1.394l0.019-0.043c0.454-0.567,1.062-0.816,1.823-0.746
		c0.763,0.069,1.494,0.409,2.196,1.02c0.784,0.683,1.27,1.376,1.456,2.082c0.185,0.705,0.03,1.343-0.465,1.913
		c-0.24,0.276-0.543,0.455-0.908,0.539c-0.364,0.084-0.751,0.064-1.16-0.06c0.234,0.416,0.337,0.822,0.308,1.218
		c-0.028,0.396-0.194,0.767-0.496,1.114c-0.499,0.574-1.137,0.812-1.912,0.715c-0.774-0.097-1.555-0.488-2.343-1.174
		c-0.699-0.607-1.157-1.291-1.375-2.051c-0.218-0.76-0.05-1.436,0.505-2.027l0.035-0.029l1.603,1.394
		c-0.184,0.211-0.25,0.463-0.197,0.753c0.051,0.291,0.236,0.574,0.553,0.849c0.306,0.266,0.598,0.391,0.876,0.375
		c0.28-0.016,0.513-0.131,0.701-0.347c0.229-0.264,0.322-0.523,0.277-0.777c-0.043-0.254-0.223-0.517-0.536-0.79l-0.883-0.769
		l0.916-1.053L51.115,26.142z"/>
	<path fill="#FFFFFF" d="M55.102,36.034c0.061-0.192,0.137-0.385,0.228-0.578c0.092-0.193,0.198-0.378,0.321-0.557
		c-0.43,0.15-0.868,0.203-1.316,0.158c-0.448-0.044-0.865-0.235-1.249-0.569c-0.643-0.558-0.993-1.153-1.053-1.785
		c-0.06-0.633,0.157-1.233,0.653-1.804c0.521-0.6,1.158-0.865,1.907-0.792c0.749,0.072,1.568,0.494,2.455,1.266l0.923,0.802
		l0.424-0.487c0.256-0.294,0.377-0.59,0.363-0.887c-0.013-0.297-0.171-0.577-0.474-0.839c-0.268-0.233-0.531-0.348-0.789-0.344
		c-0.259,0.004-0.489,0.121-0.689,0.351l-1.592-1.394l0.025-0.039c0.423-0.541,1.036-0.791,1.838-0.753
		c0.803,0.039,1.59,0.394,2.363,1.066c0.732,0.637,1.165,1.34,1.299,2.109c0.134,0.77-0.098,1.498-0.695,2.185l-2.201,2.531
		c-0.25,0.287-0.463,0.575-0.64,0.866c-0.177,0.291-0.326,0.602-0.449,0.933L55.102,36.034z M54.55,33.615
		c0.291,0.253,0.612,0.407,0.963,0.46c0.352,0.053,0.648,0.021,0.893-0.1l0.753-0.866l-0.923-0.802
		c-0.352-0.306-0.693-0.449-1.027-0.432c-0.334,0.018-0.609,0.152-0.826,0.401c-0.177,0.204-0.251,0.427-0.224,0.669
		C54.186,33.188,54.316,33.412,54.55,33.615z"/>
	<path fill="#FFFFFF" d="M66.719,35.379l1.647,1.433l-5.328,6.126l-1.647-1.433l3.25-3.737l-0.028-0.035l-5.253,2.004l-1.654-1.438
		l5.328-6.126l1.654,1.438l-3.24,3.726l0.028,0.035L66.719,35.379z M69.938,33.496l-0.018,0.044
		c-0.398,0.496-0.906,0.742-1.522,0.739c-0.618-0.003-1.225-0.264-1.82-0.783c-0.601-0.522-0.946-1.089-1.036-1.701
		c-0.091-0.613,0.084-1.149,0.523-1.608l0.041-0.024l1.206,1.049c-0.174,0.2-0.26,0.414-0.256,0.643
		c0.003,0.229,0.128,0.449,0.373,0.663c0.238,0.207,0.47,0.296,0.697,0.268c0.227-0.028,0.427-0.142,0.601-0.342L69.938,33.496z"/>
	<path fill="#FFFFFF" d="M69.655,45.313l0.033,0.029l5.234-2.827l2.066,1.797l-5.328,6.125l-1.647-1.433l3.182-3.657l-0.029-0.035
		l-4.608,2.427l-1.109-0.966l1.73-4.79L69.14,41.96l-3.112,3.579L64.374,44.1l5.328-6.125l2.05,1.783L69.655,45.313z"/>
	<path fill="#FFFFFF" d="M84.252,55.752c-0.948,1.091-1.918,1.701-2.909,1.83c-0.99,0.13-1.913-0.177-2.766-0.918
		c-0.86-0.749-1.297-1.624-1.308-2.625c-0.011-1,0.458-2.047,1.406-3.138l1.581-1.817c0.945-1.087,1.915-1.697,2.909-1.829
		c0.995-0.133,1.92,0.172,2.776,0.918c0.854,0.742,1.285,1.616,1.295,2.623c0.01,1.006-0.459,2.052-1.404,3.139L84.252,55.752z
		 M84.335,52.33c0.567-0.652,0.886-1.215,0.953-1.689c0.068-0.474-0.083-0.872-0.453-1.194c-0.373-0.324-0.788-0.42-1.243-0.286
		c-0.454,0.135-0.968,0.529-1.538,1.186l-1.865,2.144c-0.577,0.664-0.899,1.231-0.967,1.702c-0.068,0.47,0.086,0.87,0.464,1.198
		c0.37,0.322,0.782,0.415,1.237,0.281c0.454-0.134,0.97-0.533,1.547-1.197L84.335,52.33z"/>
	<path fill="#FFFFFF" d="M85.145,61.084l-0.434-1.124l9.629-2.941l0.435,1.124L85.145,61.084z M88.235,61.306
		c0.42-0.483,0.93-0.749,1.528-0.799c0.601-0.048,1.181,0.172,1.744,0.661c0.565,0.492,0.865,1.037,0.9,1.634
		c0.033,0.597-0.16,1.139-0.584,1.626l-0.379,0.436c-0.427,0.491-0.937,0.761-1.528,0.809c-0.593,0.048-1.17-0.172-1.732-0.661
		c-0.565-0.492-0.868-1.039-0.907-1.639c-0.037-0.601,0.155-1.144,0.579-1.631L88.235,61.306z M88.328,53.241
		c0.424-0.487,0.934-0.756,1.531-0.806c0.598-0.052,1.178,0.168,1.74,0.657c0.569,0.496,0.87,1.041,0.903,1.637
		c0.033,0.595-0.164,1.139-0.591,1.629l-0.379,0.437c-0.424,0.486-0.932,0.754-1.524,0.802c-0.593,0.049-1.17-0.171-1.732-0.661
		c-0.566-0.492-0.868-1.037-0.906-1.634s0.155-1.138,0.579-1.625L88.328,53.241z M88.954,62.696
		c-0.188,0.215-0.282,0.456-0.284,0.723c-0.004,0.266,0.101,0.49,0.313,0.675c0.245,0.213,0.482,0.295,0.711,0.246
		c0.229-0.051,0.447-0.193,0.654-0.432l0.379-0.436c0.188-0.216,0.287-0.452,0.299-0.71s-0.093-0.483-0.315-0.678
		c-0.228-0.197-0.466-0.271-0.718-0.221c-0.252,0.049-0.472,0.181-0.659,0.396L88.954,62.696z M89.048,54.633
		c-0.19,0.219-0.291,0.454-0.301,0.709c-0.009,0.254,0.101,0.479,0.327,0.677c0.219,0.19,0.453,0.263,0.701,0.217
		s0.469-0.178,0.659-0.396l0.379-0.437c0.19-0.219,0.292-0.457,0.304-0.715s-0.094-0.484-0.315-0.678
		c-0.223-0.193-0.46-0.266-0.712-0.216c-0.252,0.049-0.473,0.184-0.663,0.402L89.048,54.633z"/>
</g>
</svg>
