<?xml version="1.0" encoding="utf-8"?>
<!-- Generator: Adobe Illustrator 16.0.0, SVG Export Plug-In . SVG Version: 6.00 Build 0)  -->
<svg version="1.2" baseProfile="tiny" id="Слой_1"
	 xmlns="http://www.w3.org/2000/svg" xmlns:xlink="http://www.w3.org/1999/xlink" x="0px" y="0px" width="70px" height="57px"
	 viewBox="0 0 100 87" xml:space="preserve">
<g>
	<path fill-rule="evenodd" fill="#EB781B" d="M100,85.988C91.358,78.725,2.077,1.212,1.012,0c14.665,0,29.33,0,43.995,0
		C45.271,0.404,81.933,32.399,100,47.994C100,60.66,100,73.324,100,85.988z"/>
	<g>
		<path fill="#FFFFFF" d="M47.756,24.391l-2.893-2.516l-2.108,1.29l-1.67-1.453l10.007-5.775l1.692,1.472L48.44,28.109l-1.67-1.453
			L47.756,24.391z M46.398,20.933l2.077,1.808l1.798-4.125l-0.034-0.029L46.398,20.933z"/>
		<path fill="#FFFFFF" d="M53.451,28.441l-0.634-0.551l-1.994,2.293l-1.653-1.438l5.328-6.126l1.653,1.438l-2.028,2.333l0.578,0.502
			l3.347-1.185l2.089,1.817l-4.51,1.149l-0.637,5.134l-2.202-1.916L53.451,28.441z"/>
		<path fill="#FFFFFF" d="M60.873,28.164l1.653,1.438l-4.221,4.852l2.027,1.763l4.221-4.852l1.652,1.438l-4.221,4.852l0.884,0.769
			l-2.871,3.301l-1.646-1.433l1.763-2.027l-4.569-3.975L60.873,28.164z"/>
		<path fill="#FFFFFF" d="M71.619,37.511l1.647,1.433l-5.328,6.125l-1.647-1.433l3.25-3.737l-0.029-0.035l-5.253,2.004l-1.653-1.438
			l5.328-6.126l1.653,1.438l-3.24,3.726l0.028,0.035L71.619,37.511z"/>
		<path fill="#FFFFFF" d="M79.669,44.514l-5.328,6.126l-1.642-1.429l1.866-2.146l-0.996-0.866l-3.066,1.102l-1.67-1.453l3.455-1.24
			c-0.229-0.491-0.319-0.97-0.268-1.436c0.051-0.467,0.237-0.885,0.56-1.255c0.519-0.596,1.181-0.878,1.983-0.845
			c0.804,0.033,1.607,0.398,2.411,1.098L79.669,44.514z M74.189,43.405c-0.183,0.21-0.261,0.464-0.231,0.763
			s0.194,0.579,0.497,0.842l1.08,0.94l1.385-1.591l-1.053-0.915c-0.31-0.27-0.622-0.396-0.935-0.379
			C74.618,43.082,74.371,43.196,74.189,43.405z"/>
	</g>
</g>
</svg>
