<?xml version="1.0" encoding="utf-8"?>
<!-- Generator: Adobe Illustrator 16.0.0, SVG Export Plug-In . SVG Version: 6.00 Build 0)  -->
<svg version="1.2" baseProfile="tiny" id="Слой_1"
	 xmlns="http://www.w3.org/2000/svg" xmlns:xlink="http://www.w3.org/1999/xlink" x="0px" y="0px" width="70px" height="57px"
	 viewBox="0 0 100 87" xml:space="preserve">
<g>
	<path fill-rule="evenodd" fill="#1D8DBF" d="M100,85.988C91.358,78.725,2.077,1.212,1.012,0c14.665,0,29.33,0,43.995,0
		C45.271,0.404,81.933,32.399,100,47.994C100,60.66,100,73.324,100,85.988z"/>
	<g>
		<path fill="#FFFFFF" d="M40.233,16.249l-0.014,0.034c-0.591,0.703-1.281,1.069-2.069,1.097s-1.569-0.293-2.341-0.964
			c-0.774-0.674-1.188-1.471-1.238-2.389s0.266-1.77,0.948-2.554l1.111-1.277c0.679-0.781,1.472-1.217,2.38-1.308
			s1.739,0.192,2.493,0.849c0.796,0.692,1.24,1.437,1.333,2.235s-0.173,1.544-0.797,2.238l-0.032,0.019l-1.256-1.092
			c0.369-0.424,0.55-0.837,0.543-1.24c-0.007-0.402-0.227-0.791-0.657-1.165c-0.386-0.336-0.829-0.446-1.328-0.33
			c-0.5,0.116-0.961,0.417-1.384,0.903l-1.118,1.286c-0.428,0.492-0.658,0.998-0.692,1.52c-0.034,0.521,0.152,0.958,0.559,1.313
			c0.404,0.351,0.796,0.502,1.178,0.454s0.759-0.287,1.13-0.714L40.233,16.249z"/>
		<path fill="#FFFFFF" d="M45.545,24.721l-1.291-1.123l3.295-3.789l-1.582-1.377l-3.295,3.789l-1.291-1.123l4.161-4.784l4.164,3.623
			L45.545,24.721z"/>
		<path fill="#FFFFFF" d="M54.816,24.383l-4.161,4.784l-1.286-1.119l3.296-3.789l-1.149-1l-0.905,1.041
			c-0.821,0.944-1.569,1.513-2.245,1.706c-0.674,0.193-1.361-0.015-2.06-0.622l-0.208-0.181l0.872-1.029l0.141,0.115
			c0.295,0.256,0.591,0.303,0.89,0.138c0.299-0.165,0.738-0.58,1.317-1.247l1.773-2.038L54.816,24.383z"/>
		<path fill="#FFFFFF" d="M53.513,27.373c0.62-0.713,1.327-1.125,2.122-1.234c0.794-0.109,1.542,0.143,2.247,0.755
			c0.707,0.616,1.063,1.325,1.07,2.127c0.006,0.802-0.304,1.562-0.926,2.278l-0.081,0.093c-0.626,0.719-1.334,1.131-2.127,1.236
			s-1.542-0.149-2.246-0.762c-0.708-0.615-1.063-1.323-1.069-2.123c-0.007-0.8,0.303-1.559,0.929-2.278L53.513,27.373z
			 M54.721,28.583c-0.379,0.436-0.606,0.851-0.683,1.248c-0.076,0.396,0.058,0.744,0.399,1.041c0.333,0.29,0.691,0.37,1.077,0.239
			c0.385-0.13,0.767-0.412,1.143-0.845l0.081-0.092c0.368-0.424,0.591-0.837,0.667-1.241c0.077-0.404-0.053-0.752-0.389-1.044
			c-0.333-0.29-0.694-0.367-1.083-0.232c-0.389,0.134-0.767,0.413-1.133,0.833L54.721,28.583z"/>
		<path fill="#FFFFFF" d="M61.199,32.607l0.026,0.023l2.058-0.883l1.458,1.269l-3.498,1.112l-0.614,3.714l-1.454-1.265l0.599-2.268
			l-2.164,0.907l-1.459-1.269l3.594-1.123l0.612-3.623l1.45,1.261L61.199,32.607z"/>
		<path fill="#FFFFFF" d="M62.982,35.61c0.62-0.713,1.327-1.124,2.121-1.233c0.795-0.11,1.543,0.142,2.247,0.755
			c0.708,0.615,1.064,1.324,1.071,2.127c0.006,0.802-0.303,1.562-0.926,2.278l-0.081,0.093c-0.626,0.719-1.335,1.131-2.127,1.236
			c-0.793,0.105-1.542-0.148-2.247-0.761c-0.707-0.615-1.063-1.323-1.068-2.123s0.303-1.56,0.929-2.279L62.982,35.61z M64.19,36.819
			c-0.379,0.436-0.606,0.852-0.683,1.249c-0.076,0.396,0.057,0.744,0.398,1.041c0.334,0.29,0.692,0.37,1.078,0.239
			c0.385-0.13,0.766-0.412,1.142-0.844l0.081-0.092c0.368-0.424,0.591-0.837,0.667-1.242c0.077-0.403-0.053-0.751-0.389-1.044
			c-0.333-0.29-0.693-0.367-1.083-0.232c-0.388,0.134-0.766,0.412-1.131,0.833L64.19,36.819z"/>
		<path fill="#FFFFFF" d="M73.19,40.365l1.286,1.119l-4.161,4.783l-1.286-1.119l2.538-2.917l-0.023-0.027l-4.103,1.564l-1.291-1.122
			l4.161-4.784l1.291,1.123l-2.53,2.909l0.022,0.028L73.19,40.365z M75.703,38.895l-0.014,0.034
			c-0.312,0.387-0.707,0.58-1.188,0.577c-0.482-0.002-0.956-0.206-1.422-0.611c-0.469-0.408-0.738-0.851-0.809-1.329
			c-0.071-0.479,0.064-0.897,0.408-1.256l0.032-0.019l0.941,0.819c-0.136,0.156-0.202,0.323-0.199,0.502
			c0.002,0.178,0.1,0.351,0.291,0.518c0.186,0.161,0.366,0.231,0.544,0.209c0.178-0.021,0.334-0.111,0.47-0.267L75.703,38.895z"/>
		<path fill="#FFFFFF" d="M77.989,48.222l-0.716-0.623l-2.338,2.688l-1.291-1.123l5.599-6.437l1.291,1.123l-2.288,2.631l0.561,0.488
			l3.995-1.146l1.578,1.373l-4.772,1.112l-0.653,5.475l-1.574-1.369L77.989,48.222z"/>
		<path fill="#FFFFFF" d="M88.955,51.176l1.296,1.126l-5.599,6.437l-1.296-1.126l3.733-4.293l-0.022-0.027l-6.332,2.04l-1.286-1.119
			l5.599-6.437l1.286,1.119l-3.729,4.288l0.022,0.027L88.955,51.176z"/>
	</g>
</g>
</svg>
