<?xml version="1.0" encoding="utf-8"?>
<!-- Generator: Adobe Illustrator 16.0.0, SVG Export Plug-In . SVG Version: 6.00 Build 0)  -->
<svg version="1.2" baseProfile="tiny" id="Слой_1"
	 xmlns="http://www.w3.org/2000/svg" xmlns:xlink="http://www.w3.org/1999/xlink" x="0px" y="0px" width="32px" height="32px"
	 viewBox="0 0 32 32" xml:space="preserve">
<g>
	<path fill-rule="evenodd" fill="#96B60B" d="M20.085,31.978c-5.356,0-10.712,0-16.068,0c-0.032-0.01-0.063-0.024-0.095-0.028
		c-0.824-0.086-1.563-0.385-2.212-0.896C0.851,30.376,0.304,29.5,0.103,28.42C0.054,28.157,0.034,27.889,0,27.623
		c0-2.914,0-5.828,0-8.742c0.008-0.072,0.017-0.144,0.023-0.216c0.052-0.564,0.067-1.135,0.161-1.692
		c0.258-1.522,0.818-2.935,1.649-4.238c0.818-1.282,1.843-2.364,3.121-3.195C5.247,9.351,5.55,9.178,5.858,9.019
		c0.272-0.141,0.425-0.333,0.404-0.652c-0.012-0.19-0.009-0.383,0-0.574c0.005-0.122-0.033-0.171-0.157-0.205
		c-1.378-0.366-2.31-1.558-2.339-2.981C3.76,4.316,3.925,4.071,4.187,3.982c0.267-0.09,0.567-0.006,0.708,0.241
		c0.079,0.139,0.107,0.315,0.125,0.479C5.106,5.468,5.497,6,6.202,6.311c0.154,0.068,0.234,0.041,0.286-0.117
		c0.023-0.067,0.064-0.133,0.112-0.187c0.175-0.193,0.357-0.38,0.544-0.579C7.128,5.401,7.099,5.353,7.069,5.306
		c-0.635-1-1.27-1.999-1.904-2.998C4.893,1.88,4.995,1.509,5.45,1.281c0.768-0.386,1.538-0.766,2.303-1.156
		c0.262-0.133,0.503-0.134,0.768,0.003c0.647,0.337,1.306,0.653,1.956,0.986c0.114,0.058,0.199,0.053,0.31-0.003
		c0.655-0.334,1.315-0.657,1.971-0.991c0.25-0.127,0.485-0.13,0.738-0.001c0.775,0.396,1.556,0.78,2.333,1.171
		c0.437,0.22,0.538,0.593,0.277,1.004c-0.346,0.545-0.692,1.091-1.039,1.636c-0.322,0.507-0.643,1.014-0.972,1.534
		c0.353,0.226,0.606,0.526,0.772,0.908c0.543-0.158,0.929-0.482,1.184-0.969c0.149-0.286,0.178-0.598,0.214-0.911
		c0.039-0.338,0.306-0.554,0.639-0.539c0.326,0.015,0.584,0.264,0.586,0.597c0.002,0.217-0.011,0.441-0.061,0.652
		c-0.295,1.247-1.069,2.044-2.298,2.395c-0.104,0.03-0.135,0.07-0.133,0.17c0.006,0.213,0.007,0.428,0,0.641
		c-0.009,0.274,0.118,0.457,0.356,0.578c1.187,0.604,2.209,1.415,3.081,2.42c0.991,1.142,1.719,2.432,2.207,3.859
		c0.301,0.879,0.505,1.78,0.557,2.71c0.028,0.516,0.031,1.033,0.039,1.55c0.002,0.102,0.03,0.143,0.132,0.174
		c0.375,0.113,0.747,0.239,1.116,0.368c0.123,0.044,0.236,0.112,0.38,0.182c0-0.098,0-0.164,0-0.23c0-0.973,0.005-1.946-0.003-2.919
		c-0.004-0.5,0.171-0.919,0.514-1.276c0.284-0.296,0.621-0.516,0.989-0.69c0.803-0.379,1.653-0.56,2.535-0.615
		c1.23-0.077,2.421,0.087,3.549,0.6c0.485,0.221,0.917,0.52,1.234,0.963c0.188,0.264,0.267,0.563,0.313,0.875
		c0,4.197,0,8.394,0,12.59c-0.019,0.093-0.033,0.186-0.056,0.276c-0.135,0.538-0.485,0.915-0.929,1.214
		c-0.701,0.474-1.493,0.706-2.318,0.839c-0.249,0.04-0.498,0.068-0.748,0.102c-0.359,0-0.72,0-1.08,0
		c-0.188-0.024-0.376-0.043-0.563-0.074c-0.988-0.165-1.944-0.416-2.743-1.069c-0.028-0.023-0.11-0.023-0.14,0
		c-0.704,0.573-1.534,0.845-2.409,1.006C20.707,31.897,20.395,31.933,20.085,31.978z M19.983,19.497
		c0.004-0.056,0.007-0.089,0.008-0.121c0.038-1.241-0.118-2.454-0.514-3.633c-0.459-1.369-1.162-2.596-2.128-3.67
		c-0.748-0.832-1.624-1.499-2.621-2.007c-0.36-0.184-0.636-0.461-0.807-0.831c-0.04-0.085-0.085-0.113-0.177-0.112
		c-0.422,0.005-0.844,0.002-1.266,0.002c-1.643,0-3.286,0-4.928,0c-0.082,0-0.154-0.015-0.203,0.095
		c-0.17,0.384-0.458,0.665-0.83,0.854c-1.646,0.834-2.914,2.07-3.842,3.654c-0.955,1.63-1.414,3.396-1.41,5.287
		c0.005,2.824,0,5.648,0.004,8.473c0,0.246,0.011,0.497,0.06,0.737c0.292,1.453,1.572,2.501,3.057,2.502
		c3.673,0.004,7.347,0.002,11.021,0.001c0.046,0,0.092-0.006,0.163-0.012c-0.433-0.421-0.582-0.912-0.577-1.482
		c0.014-1.608,0.005-3.218,0.005-4.827c0-0.064,0-0.129,0-0.233c-1.405,1.118-2.973,1.641-4.723,1.551
		c-1.755-0.09-3.271-0.77-4.507-2.017c-2.153-2.172-2.627-5.369-1.185-8.08c1.376-2.586,4.246-4.041,7.225-3.527
		c1.432,0.247,2.669,0.891,3.685,1.929c1.558,1.591,2.183,3.514,1.952,5.742C18.287,19.55,19.121,19.466,19.983,19.497z
		 M5.007,18.851c0.003,0.91,0.213,1.763,0.625,2.565c0.542,1.056,1.339,1.867,2.386,2.419c1.084,0.572,2.241,0.771,3.458,0.584
		c1.39-0.213,2.536-0.86,3.444-1.93c0.048-0.057,0.065-0.148,0.077-0.228c0.038-0.26,0.03-0.531,0.104-0.778
		c0.132-0.442,0.458-0.75,0.82-1.02c0.059-0.043,0.124-0.106,0.142-0.172c0.197-0.736,0.248-1.488,0.126-2.238
		c-0.278-1.712-1.142-3.058-2.627-3.963c-1.64-0.999-3.386-1.151-5.139-0.371C6.223,14.699,5.132,16.468,5.007,18.851z
		 M14.728,2.135c-0.503-0.252-0.985-0.491-1.464-0.736c-0.095-0.048-0.169-0.049-0.265,0c-0.66,0.335-1.325,0.66-1.983,0.999
		c-0.263,0.136-0.504,0.134-0.768-0.001C9.6,2.061,8.943,1.744,8.294,1.412C8.176,1.351,8.086,1.354,7.97,1.415
		c-0.428,0.223-0.861,0.434-1.292,0.65C6.633,2.087,6.592,2.113,6.548,2.138C6.56,2.163,6.565,2.179,6.573,2.192
		c0.616,0.971,1.23,1.943,1.852,2.91c0.033,0.051,0.126,0.09,0.192,0.09c1.343,0.005,2.687,0.002,4.03,0.006
		c0.103,0,0.162-0.034,0.216-0.121c0.269-0.434,0.545-0.864,0.819-1.295C14.028,3.238,14.373,2.694,14.728,2.135z M19.467,23.238
		c0.808-0.003,1.516-0.101,2.199-0.344c0.382-0.136,0.754-0.296,1.043-0.596c0.208-0.216,0.214-0.411-0.005-0.612
		c-0.155-0.143-0.329-0.273-0.514-0.374c-0.57-0.309-1.191-0.447-1.832-0.521c-1.085-0.125-2.142-0.024-3.154,0.392
		c-0.27,0.111-0.524,0.282-0.751,0.469c-0.276,0.226-0.268,0.461,0.007,0.689c0.179,0.149,0.379,0.282,0.589,0.382
		C17.839,23.102,18.685,23.225,19.467,23.238z M27.381,18.243c0.844-0.007,1.611-0.122,2.345-0.416
		c0.319-0.128,0.626-0.282,0.865-0.539c0.186-0.2,0.202-0.396,0.001-0.575c-0.198-0.177-0.422-0.339-0.659-0.456
		c-0.648-0.316-1.348-0.447-2.064-0.493c-1.007-0.065-1.985,0.056-2.907,0.478c-0.264,0.121-0.505,0.31-0.724,0.504
		c-0.17,0.151-0.172,0.336-0.006,0.488c0.207,0.19,0.438,0.371,0.689,0.494C25.712,18.114,26.565,18.232,27.381,18.243z
		 M13.739,7.868c0-0.312,0.019-0.615-0.005-0.915c-0.024-0.304-0.303-0.504-0.67-0.504c-1.624-0.002-3.249-0.001-4.873,0
		c-0.045,0-0.09,0.003-0.134,0.008C7.803,6.483,7.563,6.663,7.539,6.912C7.508,7.226,7.532,7.546,7.532,7.868
		C9.602,7.868,11.668,7.868,13.739,7.868z M24.12,21.259c0,0.199,0.011,0.396-0.003,0.592c-0.017,0.239,0.08,0.424,0.268,0.545
		c0.249,0.16,0.501,0.329,0.775,0.433c1.387,0.523,2.799,0.547,4.211,0.114c0.344-0.105,0.667-0.288,0.986-0.461
		c0.169-0.092,0.341-0.23,0.36-0.442c0.024-0.259,0.006-0.522,0.006-0.778C28.525,22.241,26.337,22.237,24.12,21.259z M24.12,23.755
		c0,0.134,0.018,0.265-0.003,0.391c-0.078,0.475,0.178,0.748,0.556,0.954c0.074,0.04,0.147,0.083,0.225,0.116
		c1.569,0.672,3.159,0.686,4.761,0.128c0.329-0.114,0.646-0.268,0.891-0.526c0.078-0.081,0.16-0.192,0.17-0.298
		c0.024-0.253,0.008-0.511,0.008-0.764C28.525,24.738,26.337,24.735,24.12,23.755z M16.25,23.752c0,0.211,0.006,0.413-0.001,0.615
		c-0.008,0.201,0.058,0.376,0.22,0.482c0.265,0.175,0.533,0.362,0.826,0.476c1.258,0.486,2.55,0.525,3.856,0.219
		c0.511-0.12,1.004-0.293,1.42-0.626c0.113-0.091,0.248-0.222,0.269-0.35c0.041-0.266,0.013-0.543,0.013-0.809
		C20.654,24.738,18.465,24.735,16.25,23.752z M24.12,26.252c0,0.196,0.011,0.393-0.003,0.588c-0.016,0.237,0.071,0.431,0.264,0.547
		c0.306,0.185,0.615,0.378,0.947,0.498c1.013,0.368,2.063,0.427,3.122,0.271c0.613-0.09,1.208-0.254,1.748-0.57
		c0.528-0.308,0.697-0.762,0.513-1.325C28.518,27.236,26.328,27.233,24.12,26.252z M16.25,26.224c0,0.219,0.011,0.408-0.002,0.597
		c-0.019,0.258,0.082,0.461,0.29,0.586c0.296,0.179,0.599,0.36,0.921,0.479c0.923,0.337,1.882,0.412,2.854,0.306
		c0.707-0.077,1.393-0.243,2.017-0.603c0.528-0.305,0.692-0.742,0.505-1.346c-1.025,0.527-2.123,0.737-3.266,0.738
		C18.421,26.98,17.316,26.774,16.25,26.224z M30.736,28.747c-2.214,0.987-4.408,0.985-6.616,0.002c0,0.209,0.008,0.411-0.002,0.612
		c-0.011,0.203,0.06,0.371,0.218,0.484c0.209,0.148,0.421,0.306,0.655,0.403c1.44,0.601,2.912,0.626,4.397,0.185
		c0.41-0.122,0.81-0.284,1.123-0.587c0.104-0.102,0.192-0.257,0.215-0.398C30.763,29.224,30.736,28.989,30.736,28.747z
		 M24.12,18.759c0,0.2,0.012,0.397-0.003,0.593c-0.018,0.239,0.08,0.425,0.267,0.547c0.247,0.161,0.501,0.327,0.774,0.432
		c1.358,0.514,2.74,0.539,4.132,0.144c0.435-0.123,0.854-0.289,1.197-0.593c0.1-0.089,0.209-0.217,0.226-0.339
		c0.035-0.257,0.011-0.521,0.011-0.778C28.526,19.742,26.338,19.743,24.12,18.759z M16.256,28.751c0,0.252-0.009,0.503,0.005,0.753
		c0.005,0.081,0.06,0.17,0.115,0.236c0.246,0.292,0.58,0.457,0.927,0.589c1.252,0.473,2.531,0.512,3.825,0.217
		c0.532-0.122,1.05-0.3,1.475-0.661c0.108-0.093,0.224-0.231,0.244-0.363c0.038-0.252,0.011-0.514,0.011-0.769
		C20.66,29.731,18.472,29.731,16.256,28.751z"/>
	<path fill-rule="evenodd" fill="#96B60B" d="M10.011,22.279c0.073-0.288-0.071-0.41-0.317-0.546
		c-0.298-0.165-0.562-0.407-0.809-0.648c-0.246-0.24-0.215-0.633,0.026-0.863c0.249-0.236,0.63-0.232,0.877,0.02
		c0.198,0.201,0.391,0.403,0.68,0.476c0.343,0.085,0.688-0.115,0.768-0.453s-0.12-0.672-0.461-0.746
		c-0.208-0.045-0.424-0.048-0.629-0.099c-0.729-0.18-1.307-0.852-1.371-1.575c-0.074-0.842,0.337-1.59,1.064-1.912
		c0.128-0.057,0.172-0.125,0.167-0.262c-0.008-0.213-0.008-0.429,0.017-0.64c0.036-0.313,0.311-0.54,0.617-0.535
		c0.316,0.004,0.58,0.243,0.604,0.567c0.016,0.213,0.013,0.427,0.007,0.641c-0.003,0.105,0.038,0.149,0.128,0.203
		c0.269,0.159,0.542,0.317,0.781,0.516c0.264,0.219,0.267,0.611,0.046,0.862c-0.222,0.255-0.579,0.272-0.866,0.069
		c-0.184-0.131-0.379-0.27-0.592-0.332c-0.348-0.103-0.685,0.155-0.73,0.51c-0.048,0.375,0.215,0.696,0.591,0.707
		c0.649,0.02,1.173,0.278,1.553,0.807c0.675,0.939,0.296,2.31-0.764,2.77c-0.109,0.047-0.156,0.102-0.149,0.224
		c0.011,0.186,0.008,0.371,0.001,0.557c-0.013,0.365-0.254,0.625-0.586,0.64c-0.348,0.015-0.612-0.216-0.654-0.585
		C9.999,22.527,10.011,22.402,10.011,22.279z"/>
	<path fill-rule="evenodd" fill="#96B60B" d="M14.394,19.488c-0.351,0.006-0.638-0.273-0.639-0.621c0-0.331,0.275-0.614,0.607-0.625
		c0.345-0.011,0.634,0.274,0.636,0.626C15,19.205,14.729,19.482,14.394,19.488z"/>
	<path fill-rule="evenodd" fill="#96B60B" d="M6.879,19.488c-0.343-0.001-0.616-0.281-0.613-0.627
		c0.004-0.344,0.289-0.625,0.626-0.62c0.341,0.006,0.619,0.293,0.613,0.633C7.5,19.225,7.229,19.489,6.879,19.488z"/>
</g>
</svg>
