<?xml version="1.0" encoding="utf-8"?>
<!-- Generator: Adobe Illustrator 16.0.0, SVG Export Plug-In . SVG Version: 6.00 Build 0)  -->
<svg version="1.2" baseProfile="tiny" id="Слой_1"
	 xmlns="http://www.w3.org/2000/svg" xmlns:xlink="http://www.w3.org/1999/xlink" x="0px" y="0px" width="30px" height="30px"
	 viewBox="0 0 42 42" xml:space="preserve">
<path fill-rule="evenodd" fill="#96B621" d="M20.915,41.814C9.438,41.801,0.173,32.451,0.187,20.894
	C0.199,9.447,9.583,0.169,21.13,0.186c11.455,0.016,20.708,9.399,20.683,20.974C41.79,32.538,32.392,41.828,20.915,41.814z
	 M21.1,19.611c2.349,2.434,4.528,4.692,6.639,6.88c1.004-1.01,1.959-1.972,2.709-2.727c-3.173-3.184-6.403-6.426-9.574-9.609
	c-3.127,3.118-6.353,6.333-9.442,9.412c0.929,0.94,1.884,1.907,2.944,2.981C16.5,24.356,18.684,22.104,21.1,19.611z"/>
</svg>
