<?xml version="1.0" encoding="utf-8"?>
<!-- Generator: Adobe Illustrator 16.0.0, SVG Export Plug-In . SVG Version: 6.00 Build 0)  -->
<!DOCTYPE svg PUBLIC "-//W3C//DTD SVG 1.1//EN" "http://www.w3.org/Graphics/SVG/1.1/DTD/svg11.dtd">
<svg version="1.1" id="Layer_1" xmlns="http://www.w3.org/2000/svg" xmlns:xlink="http://www.w3.org/1999/xlink" x="0px" y="0px"
	 width="600px" height="114.5px" viewBox="1200 0 600 114.5" enable-background="new 1200 0 600 114.5" xml:space="preserve">
<g>
	
		<linearGradient id="SVGID_1_" gradientUnits="userSpaceOnUse" x1="-560.939" y1="874.666" x2="-560.939" y2="798.5076" gradientTransform="matrix(1.3439 0 0 -1.3439 2013.17 1178.5999)">
		<stop  offset="0" style="stop-color:#243F90"/>
		<stop  offset="1" style="stop-color:#662D91"/>
	</linearGradient>
	<path fill="url(#SVGID_1_)" d="M1275.436,110.289h-32.179c-20.456,0-36.95-16.574-36.95-36.949V41.16
		c0-20.455,16.574-36.949,36.95-36.949h32.179c20.455,0,36.949,16.574,36.949,36.949v32.18
		C1312.385,93.714,1295.81,110.289,1275.436,110.289z"/>
	<g>
		
			<linearGradient id="SVGID_2_" gradientUnits="userSpaceOnUse" x1="-470.9136" y1="873.6533" x2="-470.9136" y2="800.7374" gradientTransform="matrix(1.3439 0 0 -1.3439 2013.17 1178.5999)">
			<stop  offset="0" style="stop-color:#243F90"/>
			<stop  offset="1" style="stop-color:#662D91"/>
		</linearGradient>
		<path fill="url(#SVGID_2_)" d="M1359.117,62.505c0-3.881,0.646-7.438,1.859-10.834c1.213-3.396,3.073-6.387,5.417-8.893
			c2.345-2.507,5.256-4.529,8.57-5.984c3.396-1.456,7.195-2.264,11.562-2.264c2.829,0,5.417,0.243,7.761,0.728
			c1.213,0.243,2.506,0.565,3.72,0.971c1.779,0.565,2.829,2.506,2.345,4.365l-1.375,5.175c-0.485,1.94-2.505,3.072-4.447,2.587
			c-0.404-0.082-0.808-0.243-1.212-0.324c-1.699-0.404-3.558-0.646-5.661-0.646c-4.446,0-7.761,1.375-9.944,4.124
			c-2.183,2.749-3.315,6.387-3.315,10.915c0,4.77,1.052,8.489,3.073,11.158c2.021,2.668,5.659,3.961,10.753,3.961
			c1.859,0,3.8-0.161,5.901-0.484c0.728-0.081,1.456-0.243,2.103-0.404c2.021-0.485,4.042,0.889,4.366,2.911l0.889,5.255
			c0.324,1.779-0.808,3.557-2.587,4.042c-1.051,0.323-2.264,0.565-3.477,0.809c-2.668,0.566-5.497,0.808-8.731,0.808
			c-4.852,0-9.056-0.728-12.533-2.183c-3.476-1.456-6.387-3.396-8.651-5.902c-2.263-2.506-3.881-5.417-4.932-8.813
			C1359.683,70.186,1359.117,66.467,1359.117,62.505z"/>
		
			<linearGradient id="SVGID_3_" gradientUnits="userSpaceOnUse" x1="-435.1763" y1="873.6533" x2="-435.1763" y2="800.7374" gradientTransform="matrix(1.3439 0 0 -1.3439 2013.17 1178.5999)">
			<stop  offset="0" style="stop-color:#243F90"/>
			<stop  offset="1" style="stop-color:#662D91"/>
		</linearGradient>
		<path fill="url(#SVGID_3_)" d="M1407.143,62.505c0-3.881,0.646-7.438,1.86-10.834c1.212-3.396,3.072-6.387,5.417-8.893
			c2.345-2.507,5.255-4.529,8.57-5.984c3.396-1.456,7.196-2.264,11.562-2.264c2.829,0,5.417,0.243,7.762,0.728
			c1.212,0.243,2.506,0.565,3.719,0.971c1.778,0.565,2.83,2.506,2.344,4.365l-1.374,5.175c-0.484,1.94-2.506,3.072-4.447,2.587
			c-0.404-0.082-0.809-0.243-1.212-0.324c-1.698-0.404-3.557-0.646-5.659-0.646c-4.447,0-7.762,1.375-9.945,4.124
			c-2.183,2.749-3.315,6.387-3.315,10.915c0,4.77,1.051,8.489,3.073,11.158c2.022,2.668,5.66,3.961,10.753,3.961
			c1.859,0,3.8-0.161,5.902-0.484c0.728-0.081,1.456-0.243,2.102-0.404c2.021-0.485,4.043,0.889,4.366,2.911l0.89,5.255
			c0.324,1.779-0.809,3.557-2.587,4.042c-1.052,0.323-2.265,0.565-3.477,0.809c-2.668,0.566-5.499,0.808-8.732,0.808
			c-4.851,0-9.055-0.728-12.532-2.183c-3.477-1.456-6.388-3.396-8.651-5.902c-2.264-2.506-3.88-5.417-4.932-8.813
			C1407.708,70.186,1407.143,66.467,1407.143,62.505z"/>
		
			<linearGradient id="SVGID_4_" gradientUnits="userSpaceOnUse" x1="-402.937" y1="873.6543" x2="-402.937" y2="800.7378" gradientTransform="matrix(1.3439 0 0 -1.3439 2013.17 1178.5999)">
			<stop  offset="0" style="stop-color:#243F90"/>
			<stop  offset="1" style="stop-color:#662D91"/>
		</linearGradient>
		<path fill="url(#SVGID_4_)" d="M1482.011,86.922c-0.324,1.859-1.94,3.153-3.8,2.991c-2.911-0.242-5.336-0.646-7.357-1.293
			c-2.749-0.889-4.851-2.103-6.468-3.719s-2.668-3.477-3.234-5.74c-0.565-2.264-0.889-4.77-0.889-7.601V16.096
			c0-1.778,1.293-3.315,2.992-3.557l7.842-1.294c2.183-0.323,4.205,1.375,4.205,3.558v53.686c0,1.374,0.081,2.587,0.323,3.638
			s0.566,2.021,1.132,2.749c0.565,0.728,1.374,1.375,2.506,1.86c0.322,0.162,0.727,0.243,1.131,0.404
			c1.779,0.485,2.911,2.264,2.668,4.124L1482.011,86.922z"/>
		
			<linearGradient id="SVGID_5_" gradientUnits="userSpaceOnUse" x1="-370.1299" y1="873.6543" x2="-370.1299" y2="800.7373" gradientTransform="matrix(1.3439 0 0 -1.3439 2013.17 1178.5999)">
			<stop  offset="0" style="stop-color:#243F90"/>
			<stop  offset="1" style="stop-color:#662D91"/>
		</linearGradient>
		<path fill="url(#SVGID_5_)" d="M1541.923,62.344c0,4.204-0.648,8.004-1.861,11.48c-1.212,3.477-2.992,6.468-5.255,8.894
			c-2.264,2.425-5.013,4.366-8.246,5.741c-3.234,1.374-6.793,2.021-10.754,2.021c-3.881,0-7.438-0.647-10.673-2.021
			c-3.234-1.375-5.983-3.234-8.247-5.741c-2.264-2.426-4.042-5.417-5.336-8.894c-1.293-3.477-1.94-7.277-1.94-11.48
			c0-4.204,0.647-8.005,1.94-11.4c1.294-3.477,3.153-6.388,5.498-8.813c2.345-2.427,5.095-4.286,8.327-5.661
			c3.235-1.374,6.712-2.021,10.431-2.021c3.881,0,7.357,0.647,10.591,2.021c3.234,1.375,5.983,3.234,8.247,5.661
			c2.265,2.425,4.043,5.335,5.336,8.813C1541.274,54.42,1541.923,58.22,1541.923,62.344z M1526.561,62.344
			c0-4.69-0.891-8.328-2.75-10.996c-1.859-2.668-4.527-3.961-7.924-3.961c-3.476,0-6.063,1.293-8.004,3.961
			c-1.858,2.668-2.829,6.306-2.829,10.996c0,4.689,0.971,8.328,2.829,11.076c1.86,2.75,4.528,4.124,8.004,4.124
			c3.477,0,6.064-1.375,7.924-4.124C1525.589,70.752,1526.561,67.033,1526.561,62.344z"/>
		
			<linearGradient id="SVGID_6_" gradientUnits="userSpaceOnUse" x1="-327.5952" y1="873.6553" x2="-327.5952" y2="800.736" gradientTransform="matrix(1.3439 0 0 -1.3439 2013.17 1178.5999)">
			<stop  offset="0" style="stop-color:#243F90"/>
			<stop  offset="1" style="stop-color:#662D91"/>
		</linearGradient>
		<path fill="url(#SVGID_6_)" d="M1572.644,34.45c4.449,0,8.168,0.485,11.159,1.536c2.99,1.051,5.336,2.426,7.114,4.366
			c1.779,1.859,3.072,4.204,3.8,6.873c0.729,2.667,1.132,5.66,1.132,8.974v31.37c-2.182,0.485-5.175,1.051-8.974,1.698
			c-3.801,0.646-8.488,0.97-13.987,0.97c-3.477,0-6.55-0.324-9.379-0.89c-2.83-0.647-5.174-1.617-7.195-2.991
			c-2.021-1.375-3.559-3.153-4.69-5.417c-1.05-2.264-1.616-4.932-1.616-8.167c0-3.072,0.647-5.74,1.86-7.923
			c1.212-2.183,2.909-3.881,5.012-5.175c2.102-1.293,4.447-2.183,7.195-2.749c2.669-0.566,5.499-0.889,8.41-0.889
			c1.939,0,3.719,0.081,5.174,0.242c1.536,0.162,2.749,0.404,3.72,0.646v-1.455c0-2.587-0.811-4.608-2.347-6.146
			c-1.534-1.536-4.284-2.344-8.084-2.344c-2.587,0-5.093,0.162-7.6,0.566c-0.972,0.161-1.94,0.322-2.83,0.484
			c-2.021,0.404-3.963-0.889-4.286-2.991l-0.808-4.932c-0.323-1.86,0.89-3.639,2.749-4.042l0,0c1.294-0.324,2.75-0.565,4.285-0.809
			c1.535-0.242,3.153-0.404,4.931-0.647C1569.169,34.53,1570.867,34.45,1572.644,34.45z M1573.858,78.514
			c1.454,0,2.91,0,4.284-0.081c1.375-0.081,2.425-0.162,3.235-0.323v-11.4c-0.648-0.163-1.537-0.243-2.75-0.405
			s-2.345-0.242-3.315-0.242c-1.454,0-2.748,0.081-3.962,0.242c-1.212,0.162-2.345,0.485-3.314,0.97
			c-0.97,0.485-1.698,1.131-2.264,1.941c-0.566,0.809-0.809,1.859-0.809,3.072c0,2.344,0.809,3.962,2.346,4.932
			C1568.926,78.11,1571.108,78.514,1573.858,78.514z"/>
		
			<linearGradient id="SVGID_7_" gradientUnits="userSpaceOnUse" x1="-180.3745" y1="873.6553" x2="-180.3745" y2="800.736" gradientTransform="matrix(1.3439 0 0 -1.3439 2013.17 1178.5999)">
			<stop  offset="0" style="stop-color:#243F90"/>
			<stop  offset="1" style="stop-color:#662D91"/>
		</linearGradient>
		<path fill="url(#SVGID_7_)" d="M1770.488,34.45c4.447,0,8.166,0.485,11.156,1.536c2.993,1.051,5.336,2.426,7.116,4.366
			c1.78,1.859,3.072,4.204,3.801,6.873c0.727,2.667,1.131,5.66,1.131,8.974v31.37c-2.183,0.485-5.174,1.051-8.974,1.698
			c-3.801,0.646-8.49,0.97-13.988,0.97c-3.476,0-6.55-0.324-9.379-0.89c-2.828-0.647-5.174-1.617-7.195-2.991
			c-2.022-1.375-3.557-3.153-4.688-5.417c-1.053-2.264-1.617-4.932-1.617-8.167c0-3.072,0.646-5.74,1.858-7.923
			c1.214-2.183,2.911-3.881,5.013-5.175c2.104-1.293,4.447-2.183,7.196-2.749c2.668-0.566,5.498-0.889,8.408-0.889
			c1.941,0,3.719,0.081,5.175,0.242c1.536,0.162,2.749,0.404,3.719,0.646v-1.455c0-2.587-0.808-4.608-2.344-6.146
			c-1.537-1.536-4.286-2.344-8.085-2.344c-2.589,0-5.094,0.162-7.602,0.566c-0.97,0.161-1.939,0.322-2.829,0.484
			c-2.021,0.404-3.962-0.889-4.284-2.991l-0.81-4.932c-0.324-1.86,0.89-3.639,2.749-4.042l0,0c1.294-0.324,2.748-0.565,4.286-0.809
			c1.536-0.242,3.153-0.404,4.931-0.647C1767.012,34.53,1768.708,34.45,1770.488,34.45z M1771.7,78.514c1.456,0,2.911,0,4.286-0.081
			c1.374-0.081,2.426-0.162,3.233-0.323v-11.4c-0.646-0.163-1.536-0.243-2.748-0.405c-1.213-0.162-2.346-0.242-3.315-0.242
			c-1.456,0-2.75,0.081-3.962,0.242c-1.213,0.162-2.345,0.485-3.314,0.97c-0.971,0.485-1.699,1.131-2.264,1.941
			c-0.566,0.809-0.809,1.859-0.809,3.072c0,2.344,0.809,3.962,2.345,4.932C1766.77,78.11,1768.871,78.514,1771.7,78.514z"/>
		
			<linearGradient id="SVGID_8_" gradientUnits="userSpaceOnUse" x1="-283.4648" y1="873.6543" x2="-283.4648" y2="800.7369" gradientTransform="matrix(1.3439 0 0 -1.3439 2013.17 1178.5999)">
			<stop  offset="0" style="stop-color:#243F90"/>
			<stop  offset="1" style="stop-color:#662D91"/>
		</linearGradient>
		<path fill="url(#SVGID_8_)" d="M1609.433,40.514c0-1.697,1.132-3.153,2.748-3.477c2.021-0.484,4.447-0.889,7.116-1.374
			c4.042-0.646,8.327-0.97,12.774-0.97c4.527,0,8.246,0.566,11.238,1.778c2.991,1.212,5.336,2.83,7.114,5.014
			c1.778,2.182,2.992,4.689,3.72,7.68c0.728,2.992,1.132,6.307,1.132,9.945v26.438c0,2.021-1.617,3.64-3.64,3.64h-7.841
			c-2.021,0-3.64-1.618-3.64-3.64V60.969c0-4.85-0.646-8.328-1.939-10.349c-1.295-2.021-3.639-3.072-7.195-3.072
			c-1.052,0-2.266,0.08-3.478,0.161c-1.213,0.081-2.265,0.243-3.233,0.323v37.434c0,2.022-1.618,3.639-3.639,3.639h-7.843
			c-2.021,0-3.639-1.617-3.639-3.639V40.514H1609.433z"/>
		
			<linearGradient id="SVGID_9_" gradientUnits="userSpaceOnUse" x1="-10830.9219" y1="13203.3379" x2="-10830.9219" y2="13130.4209" gradientTransform="matrix(-1.3439 0 0 1.3439 -12841.3535 -17623.1094)">
			<stop  offset="0" style="stop-color:#662D91"/>
			<stop  offset="1" style="stop-color:#243F90"/>
		</linearGradient>
		<path fill="url(#SVGID_9_)" d="M1736.692,84.335c0,1.699-1.132,3.153-2.749,3.477c-2.022,0.485-4.447,0.889-7.115,1.374
			c-4.042,0.647-8.327,0.97-12.775,0.97c-4.526,0-8.245-0.565-11.238-1.778c-2.99-1.212-5.336-2.83-7.113-5.013
			c-1.779-2.183-2.991-4.689-3.72-7.681c-0.729-2.991-1.132-6.306-1.132-9.945V39.301c0-2.021,1.616-3.638,3.639-3.638h7.843
			c2.021,0,3.639,1.617,3.639,3.638v24.579c0,4.852,0.646,8.328,1.939,10.349c1.293,2.022,3.638,3.073,7.196,3.073
			c1.051,0,2.263-0.081,3.477-0.162c1.212-0.081,2.263-0.242,3.233-0.323V39.382c0-2.021,1.617-3.639,3.638-3.639h7.844
			c2.021,0,3.638,1.618,3.638,3.639v44.953H1736.692z"/>
		
			<linearGradient id="SVGID_10_" gradientUnits="userSpaceOnUse" x1="-252.1797" y1="873.6553" x2="-252.1797" y2="800.7371" gradientTransform="matrix(1.3439 0 0 -1.3439 2013.17 1178.5999)">
			<stop  offset="0" style="stop-color:#243F90"/>
			<stop  offset="1" style="stop-color:#662D91"/>
		</linearGradient>
		<path fill="url(#SVGID_10_)" d="M1683.734,81.101c0,3.073-0.97,5.336-2.91,6.954c-1.941,1.617-4.124,2.345-6.55,2.345
			c-2.425,0-4.608-0.809-6.548-2.345c-1.941-1.617-2.911-3.881-2.911-6.954c0-3.072,0.97-5.335,2.911-6.953
			c1.939-1.617,4.123-2.345,6.548-2.345c2.426,0,4.608,0.809,6.55,2.345C1682.765,75.765,1683.734,78.029,1683.734,81.101z"/>
	</g>
	<g>
		
			<linearGradient id="SVGID_11_" gradientUnits="userSpaceOnUse" x1="-577.8735" y1="824.167" x2="-546.5613" y2="824.167" gradientTransform="matrix(1.3439 0 0 -1.3439 2013.17 1178.5999)">
			<stop  offset="0" style="stop-color:#939598"/>
			<stop  offset="0.1271" style="stop-color:#A8AAAC"/>
			<stop  offset="0.3858" style="stop-color:#CECFD0"/>
			<stop  offset="0.6259" style="stop-color:#E9E9EA"/>
			<stop  offset="0.8381" style="stop-color:#F9F9F9"/>
			<stop  offset="1" style="stop-color:#FFFFFF"/>
		</linearGradient>
		<path fill="url(#SVGID_11_)" d="M1278.669,88.54L1247.3,78.11c-6.388-2.103-10.753-8.166-10.753-14.877v-9.701l42.042,13.987
			V88.54H1278.669z"/>
		<path fill="#FFFFFF" d="M1278.669,46.416l-42.042,13.988v-9.702c0-6.792,4.367-12.775,10.753-14.877l31.371-10.429v21.021
			H1278.669z"/>
	</g>
</g>
</svg>
