<?xml version="1.0" encoding="utf-8"?>
<!-- Generator: Adobe Illustrator 23.0.3, SVG Export Plug-In . SVG Version: 6.00 Build 0)  -->
<svg version="1.1" id="Layer_1" xmlns="http://www.w3.org/2000/svg" xmlns:xlink="http://www.w3.org/1999/xlink" x="0px" y="0px"
	 viewBox="0 0 213.23 92.75" style="enable-background:new 0 0 213.23 92.75;" xml:space="preserve">
<style type="text/css">
	.st0{fill:none;}
	.st1{fill:#1D8649;}
	.st2{fill:#FED925;}
	.st3{fill:#208749;}
</style>
<g id="Слой_1_copy">
	<g>
		<g>
			<g>
				<path class="st0" d="M118.93,55.83c-0.67-0.41-1.46-0.7-2.39-0.88s-1.94-0.28-3.05-0.28h-6.09V64.7h6.09
					c1.11,0,2.12-0.09,3.05-0.28c0.93-0.18,1.72-0.48,2.39-0.88c0.66-0.4,1.18-0.92,1.56-1.56c0.37-0.63,0.56-1.4,0.56-2.3
					c0-0.9-0.19-1.66-0.56-2.3C120.12,56.76,119.6,56.23,118.93,55.83z"/>
				<path class="st0" d="M146.65,55.74c-0.8-0.68-1.74-1.18-2.81-1.5c-1.07-0.32-2.22-0.48-3.45-0.48c-1.22,0-2.37,0.16-3.44,0.48
					s-2.01,0.82-2.81,1.5s-1.44,1.57-1.92,2.66s-0.72,2.41-0.72,3.96s0.24,2.87,0.72,3.96s1.12,1.98,1.92,2.66s1.74,1.18,2.81,1.5
					c1.07,0.32,2.22,0.48,3.44,0.48c1.23,0,2.37-0.16,3.45-0.48c1.07-0.32,2.01-0.82,2.81-1.5s1.44-1.57,1.92-2.66
					c0.48-1.09,0.72-2.41,0.72-3.96c0-1.54-0.24-2.86-0.72-3.96C148.09,57.31,147.45,56.42,146.65,55.74z"/>
				<polygon class="st1" points="83.97,72.76 87.41,72.76 87.41,54.76 98.61,54.76 98.61,51.96 83.97,51.96 				"/>
				<path class="st1" d="M121.28,54.04c-1.07-0.67-2.35-1.19-3.86-1.54c-1.51-0.36-3.18-0.54-5.02-0.54h-8.44v20.79h3.44V67.4h5
					c1.84,0,3.51-0.18,5.02-0.53c1.51-0.36,2.79-0.87,3.86-1.54s1.89-1.49,2.46-2.43c0.57-0.95,0.86-2.02,0.86-3.21
					s-0.29-2.26-0.86-3.21C123.17,55.53,122.35,54.71,121.28,54.04z M120.49,61.98c-0.38,0.63-0.9,1.15-1.56,1.56
					c-0.67,0.41-1.46,0.7-2.39,0.88s-1.94,0.28-3.05,0.28h-6.09V54.67h6.09c1.11,0,2.12,0.09,3.05,0.28
					c0.93,0.18,1.72,0.48,2.39,0.88c0.66,0.4,1.18,0.92,1.56,1.56c0.37,0.63,0.56,1.4,0.56,2.3
					C121.05,60.58,120.87,61.35,120.49,61.98z"/>
				<path class="st1" d="M149.19,54.06c-1.07-0.95-2.35-1.67-3.86-2.16s-3.15-0.74-4.94-0.74c-1.81,0-3.47,0.25-4.96,0.74
					s-2.77,1.21-3.84,2.16c-1.07,0.95-1.9,2.12-2.5,3.52s-0.9,2.99-0.9,4.78c0,1.81,0.3,3.41,0.9,4.8c0.6,1.39,1.43,2.55,2.5,3.5
					s2.35,1.67,3.84,2.16c1.49,0.49,3.15,0.74,4.96,0.74c1.79,0,3.43-0.25,4.94-0.74c1.51-0.49,2.79-1.21,3.86-2.16
					c1.07-0.95,1.9-2.11,2.5-3.5s0.9-2.99,0.9-4.8c0-1.79-0.3-3.38-0.9-4.78C151.09,56.18,150.26,55.01,149.19,54.06z M148.57,66.32
					c-0.48,1.09-1.12,1.98-1.92,2.66s-1.74,1.18-2.81,1.5c-1.07,0.32-2.22,0.48-3.45,0.48c-1.22,0-2.37-0.16-3.44-0.48
					s-2.01-0.82-2.81-1.5s-1.44-1.57-1.92-2.66c-0.48-1.09-0.72-2.41-0.72-3.96c0-1.54,0.24-2.86,0.72-3.96
					c0.48-1.09,1.12-1.98,1.92-2.66s1.74-1.18,2.81-1.5c1.07-0.32,2.22-0.48,3.44-0.48c1.23,0,2.37,0.16,3.45,0.48
					c1.07,0.32,2.01,0.82,2.81,1.5s1.44,1.57,1.92,2.66s0.72,2.41,0.72,3.96C149.29,63.91,149.05,65.23,148.57,66.32z"/>
				<polygon class="st1" points="184.94,69.96 175.58,69.96 175.58,51.96 172.14,51.96 172.14,69.96 162.79,69.96 162.79,51.96 
					159.35,51.96 159.35,72.76 188.38,72.76 188.38,51.96 184.94,51.96 				"/>
				<rect x="196.14" y="52.36" class="st1" width="3.44" height="20.39"/>
			</g>
			<path class="st2" d="M44.96,45.58c-2.06,0.6-3.87,1.54-5.45,2.82c-1.58,1.29-2.88,2.95-3.91,4.99c-1.03,2.04-1.69,4.47-1.98,7.29
				h23.15l3.5,6.59H33.51c0.51,6.02,2.48,10.35,5.89,12.98c3.42,2.64,7.84,3.95,13.27,3.95c3.6,0,6.96-0.53,10.08-1.6
				c0.09-0.03,0.19-0.07,0.28-0.1l1.23-2.85l5.93-12.38L57.92,45.29c-2.03-0.4-4.14-0.6-6.35-0.6
				C49.22,44.69,47.02,44.98,44.96,45.58z"/>
			<path class="st2" d="M26.86,75.73c-1.41-3.26-2.12-7.02-2.12-11.29c0-4.2,0.7-7.95,2.12-11.24c1.41-3.29,3.37-6.05,5.88-8.28
				c2.51-2.23,5.52-3.92,9.03-5.08c3.51-1.16,7.4-1.74,11.67-1.74c0.16,0,0.31,0.01,0.47,0.01l-7.08-12.68H43.3
				c-0.04-3.24-0.99-10.11-7.72-15.36l-1.66,2.13c5.86,4.57,6.66,10.51,6.68,13.23h-3.57L13.66,67.27l5.93,12.38l3.09,7.15h14.24
				c-1.49-0.82-2.86-1.77-4.09-2.83C30.26,81.74,28.27,79,26.86,75.73z"/>
		</g>
		<path class="st3" d="M44.72,18.96c4.17,3.49,10.04,4.74,15.52,2.74c5.48-1.99,9.18-6.71,10.13-12.07
			C66.19,6.14,60.33,4.9,54.85,6.89C49.37,8.89,45.67,13.61,44.72,18.96z"/>
	</g>
</g>
</svg>
